<svg id="Layer_1" height="512" viewBox="0 0 512 512" width="512" xmlns="http://www.w3.org/2000/svg" data-name="Layer 1"><path d="m229.992 165a28.763 28.763 0 0 1 -14.595-3.547c0 .142-.01.595-.01.737 0 5.52 5.859 13.711 14.926 20.816 8.854 6.937 19.12 11.648 25.69 11.785 13.823-.284 40.61-19.865 40.61-32.544 0-.142-.008-.656-.01-.8a28.766 28.766 0 0 1 -14.6 3.551z"/><rect height="39" rx="17.212" width="86" x="213" y="115"/><path d="m174.111 216.439c-14.868 16.6-25.823 37.148-32.126 59.777 1.572 1.432 8.643 6.1 36.44 9.788 21.041 2.793 48.62 4.331 77.657 4.331s56.618-1.535 77.653-4.335c27.126-3.6 34.512-8.131 36.313-9.678-6.3-22.674-17.264-43.261-32.16-59.885-11.44 17.897-43.329 30.463-81.888 30.463s-70.45-12.566-81.889-30.461z"/><path d="m181.561 201.7c0 7.932 7.358 16.076 20.188 22.326 14.391 7.011 33.657 10.88 54.251 10.88s39.86-3.852 54.251-10.863c12.83-6.251 20.188-14.369 20.188-22.3 0-9.29-10.041-18.64-26.529-25.042-4.515 7.2-11.172 13.038-14.822 15.9-8.536 6.688-21.335 13.8-32.231 14.282-.184.017-.371.121-.56.121h-.597c-.189 0-.376-.1-.56-.121-10.9-.481-23.695-7.772-32.231-14.46-3.65-2.86-10.307-8.608-14.822-15.809-16.487 6.398-26.526 15.792-26.526 25.086z"/><path d="m230.335 93.885c0 3.232 2.2 6.115 6.084 9.115h39.167c3.886-3 6.079-5.876 6.079-9.115 0-3.689-4.511-7.944-12.375-11.624a82.726 82.726 0 0 0 -13.356-4.787c-8.872 2.119-25.599 8.574-25.599 16.411z"/><path d="m376.211 321.967a173.206 173.206 0 0 0 -3.236-33.386c-6.916 3.555-17.8 6.258-33.272 8.537-22.111 3.256-51.81 4.882-83.623 4.882h-.016c-31.815 0-61.512-1.633-83.62-4.89-15.573-2.294-26.495-4.991-33.4-8.58a172.613 172.613 0 0 0 -3.253 33.41c0 1.54.024 3.065.074 4.6 3.677 2.251 13.9 6.3 41.271 9.607 21.842 2.632 49.831 3.853 78.864 3.853h.57c29.256 0 57.383-1.272 79.2-3.958 26.645-3.281 36.692-7.232 40.369-9.495.046-1.532.072-3.036.072-4.58z"/><path d="m256.408 411h-.117c-32.981 0-71.563-2.648-95.977-9.438a196.359 196.359 0 0 0 34.158 38.618c25.3 8.643 98.7 8.732 124.677.163a185.288 185.288 0 0 0 33.881-38.943c-24.446 6.891-63.404 9.6-96.622 9.6z"/><path d="m298.56 456.58a360.156 360.156 0 0 1 -41.582 2.245 358.948 358.948 0 0 1 -41.947-2.289 258.745 258.745 0 0 0 41.051 23.986 243.306 243.306 0 0 0 42.478-23.942z"/><path d="m375.123 340c-30.749 11.539-102.539 12-118.545 12h-.389c-16.827 0-88.467-.373-119.215-11.876a141.5 141.5 0 0 0 13.874 45.021c14.621 8.255 56.376 13.855 105.435 13.855h.122c49.115 0 90.964-5.553 105.65-13.807a144.57 144.57 0 0 0 13.068-45.193z"/><path d="m139.417 258.912-37.057-6.112a6 6 0 0 0 -6.931 5.184l-19.7 159.361-28.322 20.046a6 6 0 0 0 6.934 9.794l30.483-21.58a6 6 0 0 0 2.488-4.161l19.259-155.79 30.892 5.1a6 6 0 0 0 1.954-11.84z"/><path d="m424.688 421.444a6 6 0 0 0 2.488 4.161l30.483 21.58a6 6 0 1 0 6.934-9.794l-28.321-20.049-19.7-159.361a6 6 0 0 0 -6.931-5.184l-37.057 6.115a6 6 0 0 0 1.954 11.84l30.892-5.1z"/><path d="m380.211 153.514-51.021 28.5a6 6 0 1 0 5.853 10.476l46.329-25.881 54.086 75.847a6 6 0 0 0 4.184 2.475l45.621 5.37a6.069 6.069 0 0 0 .709.041 6 6 0 0 0 .694-11.959l-42.981-5.059-55.663-78.057a6 6 0 0 0 -7.811-1.753z"/><path d="m26.028 248.489a6.072 6.072 0 0 0 .709-.042l45.621-5.37a6 6 0 0 0 4.132-2.4l55.1-74.923 46.4 25.92a6 6 0 0 0 5.852-10.477l-51.02-28.5a6 6 0 0 0 -7.76 1.684l-56.695 77.083-43.033 5.065a6 6 0 0 0 .694 11.96z"/><path d="m337.657 124.462-33.747 11.366a6 6 0 1 0 3.83 11.372l35.9-12.092a6 6 0 0 0 3.29-2.7l23.574-41.094 38.086-25.607a6 6 0 1 0 -6.695-9.958l-39.243 26.386a5.987 5.987 0 0 0 -1.857 1.994z"/><path d="m103.41 65.707 38.082 25.606 23.574 41.095a6 6 0 0 0 3 2.6l35.9 14.158a6 6 0 1 0 4.4-11.163l-33.947-13.387-23.214-40.488a5.994 5.994 0 0 0 -1.857-1.993l-39.243-26.386a6 6 0 1 0 -6.7 9.958z"/><path d="m270.438 81.819a6 6 0 0 0 8.459-.673l10.122-11.874 68.175-26.191a6 6 0 1 0 -4.3-11.2l-69.6 26.738a6 6 0 0 0 -2.414 1.708l-11.115 13.033a6 6 0 0 0 .673 8.459z"/><path d="m154.806 43.081 68.175 26.191 10.119 11.874a6 6 0 0 0 9.132-7.786l-11.109-13.035a6 6 0 0 0 -2.414-1.708l-69.6-26.738a6 6 0 1 0 -4.3 11.2z"/></svg>