<svg height="511pt" viewBox="0 -8 511.99685 511" width="511pt" xmlns="http://www.w3.org/2000/svg"><path d="m506.824219 203.832031-12.578125-4.105469c-2.285156-.746093-4.789063-.351562-6.734375 1.0625l-37.738281 27.40625-45.980469-49.640624c-2.03125-2.195313-5.171875-2.972657-7.992188-1.980469l-40.507812 14.261719c-.375-.496094-.753907-.992188-1.125-1.46875-12.621094-16.183594-25.273438-26-32.574219-30.886719 1.566406-3.25 2.996094-6.011719 4.414062-10.554688l25.335938-3.535156c2.625-.367187 4.863281-2.097656 5.886719-4.542969l18.929687-45.40625 40.382813-21.976562c3.640625-1.980469 4.984375-6.535156 3.003906-10.171875-1.980469-3.640625-6.535156-4.984375-10.171875-3.003907l-42.707031 23.238282c-1.5.820312-2.679688 2.125-3.335938 3.703125l-18.300781 43.894531-16.53125 2.308594c.050781-3.179688-.164062-6.371094-.667969-9.546875-.652343-4.089844-4.488281-6.878907-8.585937-6.230469-4.09375.652344-6.878906 4.496094-6.230469 8.585938 2.144531 13.488281-2.898437 22.5-5.835937 28.589843h-101.304688l-2.285156-4.726562c-5.179688-10.738281-5.378906-23.132813-.546875-34.003907 3.945312-8.886718 10.828125-15.949218 19.351562-20.050781 13.792969 20.882813 54.628907 20.648438 68.261719 0 2.644531 1.265625 5.136719 2.828125 7.457031 4.667969 3.25 2.574219 7.964844 2.023438 10.535157-1.21875 2.574218-3.25 2.027343-7.964844-1.21875-10.539062-3.976563-3.148438-8.320313-5.691407-12.957032-7.621094-.429687-4.738282-2.355468-9.117188-5.445312-12.894532l33.5-29.289062h35.929687c2.21875 0 4.324219-.984375 5.75-2.683594l18.988281-22.65625c2.660157-3.175781 2.242188-7.90625-.933593-10.566406-3.171875-2.660156-7.902344-2.24609375-10.5625.929688l-16.742188 19.976562h-35.246093c-1.8125 0-3.570313.65625-4.9375 1.851562l-38.03125 33.257813c-3.820313-1.75-8.105469-3.011719-12.714844-3.671875v-17.03125c0-4.144531-3.359375-7.5-7.5-7.5-4.144532 0-7.5 3.355469-7.5 7.5v17.03125c-4.609375.660156-8.898438 1.921875-12.714844 3.671875l-38.035156-33.253906c-1.367188-1.195313-3.121094-1.855469-4.9375-1.855469h-35.246094l-16.738281-19.972656c-2.660157-3.1757815-7.390625-3.59375-10.566407-.933594-3.175781 2.664062-3.589843 7.390625-.929687 10.566406l18.988281 22.65625c1.425782 1.699219 3.527344 2.683594 5.746094 2.683594h35.929688l33.5 29.292969c-3.089844 3.769531-5.011719 8.148437-5.441407 12.882812-12.953125 5.390625-23.433593 15.589844-29.25 28.679688-3.335937 7.511719-4.917969 15.554687-4.761719 23.570312l-17.605468-2.457031-18.296875-43.894531c-.660157-1.578125-1.835938-2.882813-3.339844-3.699219l-42.703125-23.242188c-3.640625-1.980468-8.191406-.632812-10.171875 3.003907s-.636719 8.191406 3 10.171875l40.386719 21.976562 18.929687 45.40625c1.019531 2.449219 3.257813 4.175782 5.886719 4.542969l26.460938 3.691406c1.421874 4.527344 2.71875 7.03125 4.34375 10.398438-12.722657 8.511719-24.605469 20.339843-33.925782 32.648437l-41.339844-14.554687c-2.816406-.992188-5.960937-.214844-7.992187 1.980469l-45.976563 49.640624-37.738281-27.40625c-1.945312-1.414062-4.445312-1.808593-6.734375-1.0625l-12.578125 4.105469c-3.941406 1.289063-6.089843 5.523438-4.804687 9.460938s5.523437 6.085937 9.460937 4.800781l8.9375-2.921875 40.027344 29.070313c3.070313 2.230468 7.328125 1.816406 9.910156-.972657l47.15625-50.910156 32.902344 11.582031c-12.621094 20.421875-20.449219 43.269532-24.433594 66.097656l-36.785156 7.503907c-2.847656.582031-5.105469 2.753906-5.789063 5.578125l-25.425781 104.5625-15.617187 18.574218h-20.636719c-4.144531 0-7.5 3.355469-7.5 7.496094 0 4.144532 3.355469 7.5 7.5 7.5h24.128906c2.214844 0 4.316407-.976562 5.742188-2.671875l18.992187-22.589843c.746094-.882813 1.277344-1.929688 1.550782-3.054688l24.714843-101.648438 26.96875-5.5c-4.589843 45.1875 2.933594 87.789063 40.996094 138.367188.171875.3125.355469.617188.574219.902344 13.691406 18.027344 30.285156 35.347656 49.394531 51.59375 11.230469 9.566406 23.046875 18.738281 43.382813 18.738281 12.828124 0 25.652343-4.230469 36.113281-12.699219 20.625-16.691406 40.265625-36.039062 56.667969-57.632812.21875-.285156.402343-.589844.574218-.902344 35.035156-46.558594 46.03125-88.46875 41.019532-138.148438l25.890624 5.28125 24.714844 101.648438c.273438 1.125.804688 2.171875 1.546875 3.054688l18.996094 22.589843c1.425781 1.695313 3.527344 2.675781 5.742187 2.675781h24.128907c4.140625 0 7.5-3.359374 7.5-7.5 0-4.144531-3.359375-7.5-7.5-7.5h-20.636719l-15.617188-18.570312-25.425781-104.566406c-.6875-2.824219-2.941406-4.996094-5.789062-5.578125l-35.695313-7.28125c-4.101562-23.648438-11.894531-46.070313-24.65625-66.625l32.035156-11.277344 47.15625 50.910156c2.582032 2.789063 6.839844 3.199219 9.910157.972657l40.027343-29.070313 8.9375 2.921875c3.9375 1.285156 8.171876-.863281 9.460938-4.800781 1.285156-3.9375-.863281-8.171875-4.800781-9.460938zm-250.296875-134.769531c13.582031 0 23.046875 7.007812 23.046875 13.292969 0 7.015625-10.328125 12.167969-19.179688 13.082031-14.59375 1.527344-26.914062-5.835938-26.914062-13.082031-.003907-6.285157 9.460937-13.292969 23.046875-13.292969zm82.042968 345.210938c-13.703124 4.820312-28.375 5.730468-42.582031 2.613281l-19.511719-4.289063c-13.050781-2.867187-26.851562-2.867187-39.902343 0l-19.515625 4.289063c-14.210938 3.121093-28.878906 2.207031-42.582032-2.613281-11.972656-16.046876-22.640624-34.21875-29.699218-54.101563l15.761718 7.464844c12.46875 5.902343 26.160157 8.921875 39.886719 8.921875 6.65625 0 13.320313-.710938 19.855469-2.148438l19.511719-4.285156c10.945312-2.40625 22.515625-2.40625 33.464843 0 21.136719 4.640625 46.816407 12.863281 79.25-2.488281l15.765626-7.464844c-7.0625 19.882813-17.730469 38.054687-29.703126 54.101563zm36.90625-131.230469-29.386718 13.910156c-28.582032 13.53125-50.257813 5.285156-70.757813 1.15625-4.808593-.964844-8.417969 2.023437-9.183593 5.792969-.765626 3.769531 1.390624 7.945312 6.230468 8.914062 19.574219 3.941406 46.226563 13.746094 80.128906-2.304687l24.320313-11.511719c.707031 14.277344.214844 27.039062-3.046875 41.96875l-27.691406 13.109375c-27.230469 12.890625-48.179688 6.105469-69.613282 1.394531-13.050781-2.867187-26.851562-2.867187-39.902343 0l-19.515625 4.289063c-16.777344 3.683593-34.570313 1.667969-50.101563-5.6875l-27.691406-13.109375c-3.234375-14.792969-3.757813-27.375-3.046875-41.96875 24.933594 11.804687 48.21875 26.164062 84.058594 18.289062l19.535156-4.289062.246094-.050782c4.050781-.863281 6.617187-4.84375 5.753906-8.894531s-4.863281-6.636719-8.917969-5.769531c-21.78125 4.78125-42.664062 11.582031-69.9375-1.328125l-29.382812-13.914063c1.671875-13.703124 4.523437-25.910156 8.074219-36.703124 16.261718 7.699218 39.847656 21.46875 74.628906 13.824218l19.511718-4.285156c10.949219-2.40625 22.519532-2.40625 33.46875 0 21.132813 4.644531 46.816407 12.867188 79.25-2.488281l14.890626-7.050781c3.550781 10.796874 6.40625 23.003906 8.078124 36.707031zm-29.386718-43.214844c-27.230469 12.890625-48.160156 6.109375-69.613282 1.398437-13.050781-2.867187-26.847656-2.871093-39.902343 0-21.328125 4.683594-42.316407 11.527344-69.613281-1.398437l-15.992188-7.570313c5.242188-12.195312 11.632812-23.011718 18.671875-32.265624 20.847656 7.316406 37.382813 5.957031 56.558594 1.746093 16.640625 19.234375 42.601562 20.878907 60.65625 0 17.453125 3.835938 34.386719 6.035157 56.558593-1.746093 7.609376 10.003906 13.8125 20.960937 18.671876 32.265624zm-13.304688-52.257813c-11.3125 3.03125-23.121094 3.460938-34.738281 1.226563l15.347656-17.738281c4.484375 3.023437 11.578125 8.394531 19.390625 16.511718zm-37.300781-18.734374c-8.390625 9.695312-12.820313 14.820312-21.515625 24.871093-6.179688 7.144531-15.984375 9.714844-24.75 6.789063-7.722656-2.578125-8.652344-5.074219-31.652344-31.660156zm-95.828125 2.222656 15.347656 17.738281c-11.617187 2.234375-23.425781 1.804687-34.742187-1.226563 7.820312-8.121093 14.914062-13.488281 19.394531-16.511718zm59.304688 309.277344c-18.339844 1.039062-27.945313-8.019532-38.847657-17.472657-9.484375-8.25-19.964843-18.238281-30.21875-29.746093 10.089844 1.144531 20.335938.625 30.386719-1.582032l19.511719-4.285156c10.945312-2.40625 22.515625-2.40625 33.464843 0l19.515626 4.285156c10.050781 2.207032 20.296874 2.726563 30.386718 1.582032-12.25 13.742187-25.953125 26.578124-39.957031 37.914062-7.066406 5.71875-15.59375 8.8125-24.242187 9.304688zm0 0"/></svg>