<svg id="Capa_1" enable-background="new 0 0 511.695 511.695" height="512" viewBox="0 0 511.695 511.695" width="512" xmlns="http://www.w3.org/2000/svg"><g><path d="m503.625 191.856c-1.033-4.011-5.118-6.431-9.133-5.393-4.012 1.032-6.426 5.122-5.393 9.133 5.04 19.571 7.596 39.843 7.596 60.251 0 64.333-25.053 124.814-70.542 170.305-45.49 45.49-105.973 70.543-170.306 70.543s-124.815-25.053-170.305-70.543-70.542-105.971-70.542-170.304 25.052-124.816 70.542-170.306c45.491-45.489 105.973-70.542 170.306-70.542 49.031 0 96.208 14.644 136.43 42.347 39.296 27.065 69.431 64.687 87.146 108.796 1.544 3.845 5.913 5.706 9.755 4.165 3.844-1.544 5.709-5.911 4.165-9.755-18.818-46.855-50.824-86.815-92.557-115.56-42.736-29.434-92.855-44.993-144.939-44.993-68.34 0-132.589 26.612-180.912 74.936s-74.936 112.572-74.936 180.912c0 68.339 26.613 132.588 74.936 180.911s112.572 74.937 180.912 74.937 132.589-26.613 180.912-74.937 74.936-112.572 74.936-180.911c-.001-21.669-2.716-43.2-8.071-63.992z"/><path d="m104.644 381.255c-.188-.004-.274-.106-.31-.15-28.939-34.964-44.943-79.257-45.064-124.722-.011-4.136-3.366-7.48-7.5-7.48-.006 0-.014 0-.021 0-4.142.011-7.491 3.378-7.48 7.52.13 48.935 17.357 96.61 48.509 134.247 2.87 3.468 7.097 5.503 11.595 5.583.093.002.186.003.279.003 4.391 0 8.566-1.869 11.492-5.155l257.895-289.677c2.99-3.357 4.361-7.839 3.762-12.295-.599-4.45-3.1-8.402-6.86-10.845-51.999-33.772-114.627-42.796-176.351-25.405-33.137 9.338-63.644 27.041-88.221 51.197-24.631 24.209-42.813 54.419-52.58 87.364-3.121 10.525-5.507 21.256-7.093 31.893-.611 4.097 2.215 7.913 6.312 8.524 4.104.607 7.914-2.214 8.524-6.312 1.483-9.946 3.717-19.986 6.638-29.842 9.046-30.514 25.891-58.498 48.714-80.93 22.783-22.393 51.06-38.803 81.775-47.458 57.504-16.203 115.788-7.84 164.113 23.547.045.03.14.091.163.264.024.184-.061.279-.098.32l-53.33 59.902c-5.86-10.9-14.135-20.284-24.387-27.513-1.717-1.211-3.495-2.297-5.319-3.27v-21.596c0-3.466 2.82-6.285 6.286-6.285s6.286 2.819 6.286 6.285v1.208c0 4.143 3.357 7.5 7.5 7.5s7.5-3.357 7.5-7.5v-1.208c0-11.736-9.549-21.285-21.286-21.285s-21.286 9.549-21.286 21.285v16.431c-6.213-1.097-12.592-1.034-18.788.191v-16.622c0-11.736-9.549-21.285-21.286-21.285s-21.286 9.549-21.286 21.285v1.208c0 4.143 3.358 7.5 7.5 7.5s7.5-3.357 7.5-7.5v-1.208c0-3.466 2.82-6.285 6.286-6.285s6.286 2.819 6.286 6.285v22.163c-1.353.762-2.681 1.582-3.973 2.478l-.312.217c-22.864 15.847-35.756 41.9-34.487 69.692l1.8 39.402h-22.248l-11.063-28.652c-1.117-2.892-3.897-4.799-6.997-4.799h-12.917c-4.142 0-7.5 3.357-7.5 7.5s3.358 7.5 7.5 7.5h7.773l11.063 28.652c1.117 2.892 3.897 4.799 6.997 4.799h28.077l1.066 23.327h-48.278c-4.142 0-7.5 3.357-7.5 7.5s3.358 7.5 7.5 7.5h41.896l-84.468 94.877c-.039.042-.138.124-.298.13zm102.581-188.421c-.082-1.796-.083-3.583-.021-5.357h40.703v33.064l-37.492 42.113zm70.119-5.357-14.437 16.217v-16.217zm-42.063-51.329.312-.217c12.261-8.5 28.69-8.433 40.885.164 9.861 6.953 17.486 16.353 22.255 27.356l-8.057 9.049c-.161-.01-.32-.024-.484-.024h-80.719c3.983-14.554 12.957-27.42 25.808-36.328z"/><path d="m140.755 433.412c34.701 22.538 74.128 34.053 114.87 34.053 20.308 0 40.948-2.863 61.479-8.648 33.137-9.337 63.644-27.04 88.221-51.196 24.632-24.209 42.814-54.419 52.581-87.363 10.811-36.462 12.463-72.984 4.911-108.553-7.031-33.118-22.212-64.474-43.9-90.678-2.869-3.467-7.096-5.502-11.595-5.583-4.444-.1-8.783 1.796-11.771 5.152l-257.896 289.677c-2.989 3.356-4.359 7.838-3.76 12.295.598 4.449 3.099 8.402 6.86 10.844zm107.152-6.931c-18.287-5.931-31.038-22.556-31.921-41.878l-1.727-37.815 33.649-37.796v117.489zm-99.049-6.233 51.117-57.416 1.026 22.456c1.203 26.32 19.033 48.867 44.381 56.106l.427.121c3.281.938 6.654 1.406 10.027 1.406 3.409 0 6.818-.479 10.13-1.436 20.636-5.96 36.828-22.572 42.259-43.353 1.047-4.008-1.354-8.105-5.36-9.152-4.007-1.054-8.105 1.353-9.152 5.359-4.003 15.316-15.757 27.611-30.807 32.377v-134.571l38.576-43.329-5.292 114.069c-.191 4.138 3.007 7.647 7.145 7.84.118.005.236.008.354.008 3.982 0 7.3-3.133 7.486-7.152l1.81-39.004h26.038l11.064 28.652c1.116 2.892 3.896 4.799 6.996 4.799h12.916c4.143 0 7.5-3.357 7.5-7.5s-3.357-7.5-7.5-7.5h-7.772l-11.064-28.652c-1.116-2.892-3.896-4.799-6.996-4.799h-30.486l1.082-23.328h48.539c4.143 0 7.5-3.357 7.5-7.5s-3.357-7.5-7.5-7.5h-47.843l1.082-23.327h27.625c3.1 0 5.88-1.907 6.996-4.799l11.064-28.652h7.772c4.143 0 7.5-3.357 7.5-7.5s-3.357-7.5-7.5-7.5h-12.916c-3.1 0-5.88 1.907-6.996 4.799l-11.064 28.652h-21.786l.088-1.9 89.43-100.451c.039-.044.102-.161.298-.13.188.004.273.106.311.15 42.641 51.518 55.821 119.095 36.163 185.402-9.047 30.513-25.892 58.498-48.714 80.929-22.783 22.393-51.061 38.803-81.775 47.457-19.167 5.4-38.413 8.071-57.356 8.071-37.888-.002-74.539-10.693-106.756-31.618-.045-.029-.14-.091-.163-.264-.026-.183.06-.279.096-.32z"/></g></svg>