<svg id="Capa_1" enable-background="new 0 0 511.996 511.996" height="512" viewBox="0 0 511.996 511.996" width="512" xmlns="http://www.w3.org/2000/svg"><g><path d="m441.996 125.998h-38.971l-16.193-10.801c-48.09-32.052-104.627-49.199-162.516-49.199-3.651 0-7.263.066-10.727.197-60.863 2.237-118.215 23.271-165.053 58.394l-44.507 33.385c-3.204 2.38-4.712 6.539-3.735 10.45 18.779 75.114 85.968 127.575 163.392 127.575h8.34c34.652 0 66.886-10.597 93.427-28.289l34.543-23.027v64.108l-83.162 27.721c-5.24 1.747-8.071 7.41-6.325 12.649l30 90c1.361 4.083 5.183 6.838 9.487 6.838h30c5.523 0 10-4.477 10-10s-4.477-10-10-10h-22.792l-24.559-73.675 80.513-26.838c4.083-1.361 6.838-5.183 6.838-9.487v-82.792l40-13.333v16.126c0 5.523 4.477 10 10 10s10-4.477 10-10v-22.792l12.198-4.066c2.295 6.647 6.328 12.597 11.832 17.279l43.803 87.605-24.904 24.903c-3.043 3.044-3.798 7.693-1.873 11.543l30 60c1.694 3.388 5.157 5.528 8.944 5.528h30c5.523 0 10-4.477 10-10s-4.477-10-10-10h-23.82l-24.013-48.025 24.904-24.903c3.043-3.044 3.798-7.693 1.873-11.543l-37.764-75.528h60.82v20c0 5.523 4.477 10 10 10s10-4.477 10-10c0-7.259 0-52.693 0-60 0-38.601-31.401-70.003-70-70.003zm-52 15.35v47.442c-5.18 1.727-68.875 22.959-77.133 25.711-6.827-7.487-12.205-15.166-15.981-22.893-19.131-39.16 5.47-73.358 17.856-90.191 21.528 7.561 42.021 17.77 61 30.42zm-95.449-46.152c-13.083 18.455-32.947 51.587-21.274 90.802-13.842 0-31.437 0-46.687 0-12.629 0-22.083-11.554-19.604-23.919l15.207-76.061c.71-.005 1.412-.019 2.127-.019 23.77-.001 47.331 3.097 70.231 9.197zm-70.877 143.456 8.242 24.719c-13.562 5.997-27.812 9.893-42.547 11.614l-14.221-42.655c-4.32-12.974 5.327-26.341 18.972-26.341h32.873c-5.763 9.904-7.003 21.6-3.319 32.663zm-87.084-52.654c-12.843 0-22.026-11.815-19.604-23.919l11.752-58.79c23.475-8.783 47.911-14.258 72.871-16.336l-14.235 71.2c-1.933 9.643-.264 19.488 4.574 27.845zm-76.05-45.409c14.369-10.775 29.753-20.09 45.908-27.819l-9.073 45.386c-1.976 9.871-.07 19.69 4.648 27.842h-53.592c-11.435 0-21.583-6.529-26.502-16.447zm-23.752 64.024c3.749.901 7.648 1.385 11.642 1.375h43.563c-5.763 9.914-7.003 21.601-3.319 32.663l6.961 20.878c-24.156-12.452-44.601-31.405-58.847-54.916zm82.907 64.753c-.067-.77-.213-1.545-.468-2.31l-11.579-34.726c-4.32-12.974 5.327-26.341 18.972-26.341.101-.002 32.762.009 32.873.01-5.763 9.904-7.003 21.591-3.319 32.654l12.454 37.346h-4.938c-15.24-.001-30.029-2.312-43.995-6.633zm134.669-18.298c-1.482.988-2.99 1.941-4.509 2.876l-7.207-21.614c-2.057-6.177-1.053-12.748 2.754-18.028 3.805-5.277 9.716-8.303 16.218-8.303h20.269c3.512 6.166 7.801 12.239 12.83 18.168zm237.636-35.07h-62c-10.818 0-20-8.702-20-20v-50h32c27.57 0 50 22.43 50 50z"/><circle cx="369.997" cy="280.998" r="10"/><path d="m359.996 339.818-54.472 27.236c-4.94 2.47-6.942 8.477-4.472 13.417l30 60c1.694 3.388 5.157 5.528 8.944 5.528h30c5.523 0 10-4.477 10-10s-4.477-10-10-10h-23.82l-22.764-45.528 51.056-25.528c3.388-1.694 5.528-5.157 5.528-8.944v-20c0-5.523-4.477-10-10-10s-10 4.477-10 10z"/></g></svg>