<?xml version="1.0" encoding="UTF-8"?>
<svg xmlns="http://www.w3.org/2000/svg" id="Layer_3" data-name="Layer 3" viewBox="0 0 64 64" width="512" height="512"><path d="M49,31.138c0-.046,0-.092,0-.138,0-11.579-7.178-21-16-21a12.47,12.47,0,0,0-4.553.881A16.69,16.69,0,0,0,31,2a1,1,0,0,0-1-1H22a1,1,0,0,0-.857,1.515,20.053,20.053,0,0,1,2.833,9.6A12.915,12.915,0,0,0,17,10C8.178,10,1,19.421,1,31S8.178,52,17,52a12.709,12.709,0,0,0,6.423-1.771,3.115,3.115,0,0,1,3.154,0,12.865,12.865,0,0,0,5.2,1.686A16,16,0,1,0,49,31.138ZM28.967,3A14.717,14.717,0,0,1,26.3,10.514l-.376.534A22.085,22.085,0,0,0,23.688,3ZM27.578,48.5a5.1,5.1,0,0,0-5.156,0A10.734,10.734,0,0,1,17,50C9.28,50,3,41.477,3,31S9.28,12,17,12a10.594,10.594,0,0,1,4.427,1H19a9.01,9.01,0,0,0-9,9,1,1,0,0,0,1,1h6a9,9,0,0,0,8.969-8.386A11.282,11.282,0,0,1,33,12c7.72,0,14,8.523,14,19A15.936,15.936,0,0,0,31.269,49.852,11.078,11.078,0,0,1,27.578,48.5ZM23.929,15A7.011,7.011,0,0,1,17,21H12.071A7.011,7.011,0,0,1,19,15ZM47,61A14,14,0,1,1,61,47,14.015,14.015,0,0,1,47,61Z"/><path d="M53.707,39.293a1,1,0,0,0-1.414,0L43,48.586l-2.293-2.293a1,1,0,0,0-1.414,0l-3,3a1,1,0,0,0,0,1.414l6,6a1,1,0,0,0,1.414,0l13-13a1,1,0,0,0,0-1.414ZM43,54.586,38.414,50,40,48.414l2.293,2.293a1,1,0,0,0,1.414,0L53,41.414,54.586,43Z"/></svg>
