<svg id="Icons" height="512" viewBox="0 0 74 74" width="512" xmlns="http://www.w3.org/2000/svg"><path d="m37 51.086a1 1 0 0 1 -.5-.133l-11.333-6.543a1 1 0 0 1 -.5-.867v-13.086a1 1 0 0 1 .5-.867l11.333-6.543a1 1 0 0 1 1 0l11.333 6.543a1 1 0 0 1 .5.867v13.086a1 1 0 0 1 -.5.867l-11.333 6.543a1 1 0 0 1 -.5.133zm-10.333-8.12 10.333 5.966 10.333-5.966v-11.932l-10.333-5.966-10.333 5.966z"/><path d="m59.667 51.086a1 1 0 0 1 -.5-.133l-11.334-6.543a1 1 0 0 1 -.5-.867v-13.086a1 1 0 0 1 .5-.867l11.334-6.543a1 1 0 0 1 1 0l11.333 6.543a1 1 0 0 1 .5.867v13.086a1 1 0 0 1 -.5.867l-11.333 6.543a1 1 0 0 1 -.5.133zm-10.334-8.12 10.334 5.966 10.333-5.966v-11.932l-10.333-5.966-10.334 5.966z"/><path d="m14.333 51.086a1 1 0 0 1 -.5-.133l-11.333-6.543a1 1 0 0 1 -.5-.867v-13.086a1 1 0 0 1 .5-.867l11.333-6.543a1 1 0 0 1 1 0l11.334 6.543a1 1 0 0 1 .5.867v13.086a1 1 0 0 1 -.5.867l-11.334 6.543a1 1 0 0 1 -.5.133zm-10.333-8.12 10.333 5.966 10.334-5.966v-11.932l-10.334-5.966-10.333 5.966z"/><path d="m48.333 31.457a.99.99 0 0 1 -.5-.134l-11.333-6.543a1 1 0 0 1 -.5-.866v-13.087a1 1 0 0 1 .5-.866l11.333-6.543a1 1 0 0 1 1 0l11.334 6.543a1 1 0 0 1 .5.866v13.087a1 1 0 0 1 -.5.866l-11.334 6.543a.99.99 0 0 1 -.5.134zm-10.333-8.12 10.333 5.963 10.334-5.965v-11.935l-10.334-5.961-10.333 5.961z"/><path d="m25.667 31.457a.99.99 0 0 1 -.5-.134l-11.334-6.543a1 1 0 0 1 -.5-.866v-13.087a1 1 0 0 1 .5-.866l11.334-6.543a1 1 0 0 1 1 0l11.333 6.543a1 1 0 0 1 .5.866v13.087a1 1 0 0 1 -.5.866l-11.333 6.543a.99.99 0 0 1 -.5.134zm-10.334-8.12 10.334 5.963 10.333-5.963v-11.937l-10.333-5.961-10.334 5.961z"/><path d="m48.333 70.716a1 1 0 0 1 -.5-.134l-11.333-6.543a1 1 0 0 1 -.5-.866v-13.087a1 1 0 0 1 .5-.866l11.333-6.543a1 1 0 0 1 1 0l11.334 6.543a1 1 0 0 1 .5.866v13.087a1 1 0 0 1 -.5.866l-11.334 6.543a1 1 0 0 1 -.5.134zm-10.333-8.116 10.333 5.965 10.334-5.965v-11.937l-10.334-5.963-10.333 5.963z"/><path d="m25.667 70.716a1 1 0 0 1 -.5-.134l-11.334-6.543a1 1 0 0 1 -.5-.866v-13.087a1 1 0 0 1 .5-.866l11.334-6.543a1 1 0 0 1 1 0l11.333 6.543a1 1 0 0 1 .5.866v13.087a1 1 0 0 1 -.5.866l-11.333 6.543a1 1 0 0 1 -.5.134zm-10.334-8.116 10.334 5.965 10.333-5.965v-11.937l-10.333-5.963-10.334 5.963z"/></svg>