<?xml version="1.0"?>
<svg xmlns="http://www.w3.org/2000/svg" id="Icons" viewBox="0 0 74 74" width="512" height="512"><path d="M61.078,67.9c-2.189,0-5.955-.842-10.384-5.361a37.031,37.031,0,0,1-5.569-5.5,23.982,23.982,0,0,1-3.6-25.18A14.66,14.66,0,0,1,46.4,25.676a1,1,0,0,1,1.328.188c.532.639,13.1,15.788,17.774,27.821.079.148,2.8,5.675,1.271,10A6.633,6.633,0,0,1,63.11,67.6,6.132,6.132,0,0,1,61.078,67.9ZM46.795,27.882A13.676,13.676,0,0,0,43.338,32.7a21.973,21.973,0,0,0,3.328,23.064,35.188,35.188,0,0,0,5.29,5.219.979.979,0,0,1,.117.1c5.991,6.144,10.235,4.685,10.278,4.67a4.6,4.6,0,0,0,2.537-2.728c1.248-3.522-1.186-8.482-1.21-8.532C59.655,44.159,49.389,31.094,46.795,27.882Z"/><path d="M13.2,67.9a6.05,6.05,0,0,1-1.949-.271,6.673,6.673,0,0,1-3.737-3.944C5.986,59.361,8.707,53.834,8.823,53.6c4.642-11.948,17.205-27.1,17.737-27.736a1,1,0,0,1,1.328-.188,14.66,14.66,0,0,1,4.879,6.182,23.982,23.982,0,0,1-3.6,25.18,37.031,37.031,0,0,1-5.569,5.5C19.147,67.074,15.367,67.9,13.2,67.9ZM27.5,27.882C24.9,31.094,14.639,44.152,10.649,54.411c-.062.134-2.5,5.094-1.247,8.616a4.641,4.641,0,0,0,2.608,2.757c.1.027,4.3,1.361,10.207-4.7a.979.979,0,0,1,.117-.1,35.188,35.188,0,0,0,5.29-5.219A21.973,21.973,0,0,0,30.953,32.7,13.676,13.676,0,0,0,27.5,27.882Z"/><path d="M37.146,71.19a6.4,6.4,0,0,1-4.219-1.574c-4.3-3.754-6.192-11.607-6.271-11.939a1,1,0,0,1,1.947-.458c.018.075,1.822,7.562,5.638,10.891a4.435,4.435,0,0,0,5.809,0c3.823-3.336,5.62-10.816,5.638-10.891a1,1,0,0,1,1.947.458c-.078.333-1.967,8.186-6.271,11.939A6.4,6.4,0,0,1,37.146,71.19Z"/><path d="M37.146,45.7a9.866,9.866,0,0,1-3.821-.793,1,1,0,1,1,.77-1.846,7.571,7.571,0,0,0,6.1,0,1,1,0,0,1,.77,1.846A9.866,9.866,0,0,1,37.146,45.7Z"/><path d="M71,40.359a1,1,0,0,1-.336-.059l-11.24-4.006a1,1,0,0,1-.553-.483l-3.237-6.267-8.9-2.065a1,1,0,0,1,.453-1.948l9.349,2.17a1,1,0,0,1,.662.515l3.268,6.327,10.869,3.874A1,1,0,0,1,71,40.359Z"/><path d="M3,40.359a1,1,0,0,1-.336-1.942l10.869-3.874L16.8,28.216a1,1,0,0,1,.669-.517l9.64-2.17a1,1,0,1,1,.439,1.951l-9.185,2.067-3.235,6.263a1,1,0,0,1-.553.483L3.336,40.3A1,1,0,0,1,3,40.359Z"/><path d="M27.33,27.5a1.04,1.04,0,0,1-.123-.007,1,1,0,0,1-.87-1.115c.01-.084,1.158-8.473,11.026-8.473,9.919,0,10.591,8.445,10.6,8.53a1,1,0,0,1-2,.132c-.02-.268-.586-6.662-8.6-6.662-8.12,0-9.008,6.444-9.042,6.718A1,1,0,0,1,27.33,27.5Z"/><path d="M45.627,23.79a1,1,0,0,1-.668-1.744l4.864-4.37-2.9-9.32a1,1,0,0,1,.348-1.091l5.459-4.173A1,1,0,1,1,53.946,4.68l-4.9,3.749,2.882,9.266a1,1,0,0,1-.287,1.041l-5.342,4.8A1,1,0,0,1,45.627,23.79Z"/><path d="M28.947,23.679a1,1,0,0,1-.668-.255l-5.315-4.768a1,1,0,0,1-.287-1.041l2.878-9.269L20.66,4.6a1,1,0,0,1,1.215-1.589l5.449,4.167a1,1,0,0,1,.348,1.091L24.777,17.6l4.838,4.339a1,1,0,0,1-.668,1.745Z"/><path d="M42.255,19.913H32.035a4.266,4.266,0,0,1-2.8-7.483l4.2-3.657a5.678,5.678,0,0,1,7.432,0l4.192,3.657a4.265,4.265,0,0,1-2.8,7.48ZM37.148,9.387a3.652,3.652,0,0,0-2.4.895l-4.2,3.657a2.266,2.266,0,0,0,1.488,3.974h10.22a2.265,2.265,0,0,0,1.489-3.973l-4.192-3.657A3.649,3.649,0,0,0,37.148,9.387Z"/><path d="M37.146,9.383a1,1,0,0,1-1-1V5.75a1,1,0,1,1,2,0V8.383A1,1,0,0,1,37.146,9.383Z"/><path d="M40.286,19.913a1,1,0,0,1-.842-.458,6.649,6.649,0,0,1,1.811-9.333A1,1,0,0,1,42.4,11.759h0a4.69,4.69,0,0,0-1.278,6.612,1,1,0,0,1-.84,1.542Z"/><path d="M34,19.913a1,1,0,0,1-.84-1.542c2.511-3.9-1.119-6.5-1.275-6.61a1,1,0,0,1,1.146-1.64,6.649,6.649,0,0,1,1.811,9.333A1,1,0,0,1,34,19.913Z"/></svg>
