<svg height="512" viewBox="0 0 60 60" width="512" xmlns="http://www.w3.org/2000/svg"><g id="Page-1" fill="none" fill-rule="evenodd"><g id="014---No-Germs" fill="rgb(0,0,0)" fill-rule="nonzero"><path id="Shape" d="m30 0c-16.5685425 0-30 13.4314575-30 30s13.4314575 30 30 30 30-13.4314575 30-30c-.018737-16.5607751-13.4392249-29.98126296-30-30zm0 58c-15.463973 0-28-12.536027-28-28s12.536027-28 28-28 28 12.536027 28 28c-.0176345 15.4566626-12.5433374 27.9823655-28 28z"/><path id="Shape" d="m46.1 11.309c-.0144538-.282878-.1481921-.5463569-.368-.725-9.9379496-8.06632012-24.36435-7.31859147-33.4151242 1.7319251-9.05077407 9.0505166-9.79891316 23.4768958-1.7328758 33.4150749.1786431.2198079.442122.3535462.725.368h.051c.2651948-.0000566.5195073-.1054506.707-.293l33.74-33.74c.2002928-.1995646.3067432-.4745919.293-.757zm-34.644 32.281c-6.71580508-9.1497746-5.74869785-21.831504 2.2768991-29.8571009 8.0255969-8.02559695 20.7073263-8.99270418 29.8571009-2.2768991z"/><path id="Shape" d="m48.691 13.9c-.2828239-.0157074-.5588079.0906084-.758.292l-33.74 33.74c-.2001839.2001223-.3061785.4757076-.2916914.7583959.014487.2826882.1480985.5459943.3676914.7246041 9.9381251 8.0619582 24.3608945 7.3124416 33.4098215-1.7362279 9.048927-9.0486696 9.7988539-23.4714176 1.7371785-33.4097721-.1784563-.2201821-.4419618-.3542973-.725-.369zm-18.691 39.1c-4.8883103-.0041418-9.6482943-1.5648841-13.59-4.456l32.134-32.134c5.1280299 6.9866518 5.8908613 16.2635415 1.9730105 23.9940291s-11.8504095 12.6005089-20.5170105 12.5959709z"/><path id="Shape" d="m29 12.129v-1.129c0-.5522847-.4477153-1-1-1s-1 .4477153-1 1v1.054c-1.287046.0611254-2.5624544.273246-3.8.632l-.231-.928c-.0796449-.3539356-.3447323-.636976-.6926975-.7396106-.3479653-.1026346-.7242251-.0087636-.9832013.2452935-.2589763.2540571-.3600447.6284478-.2641012.9783171l.284 1.14c-1.213165.558216-2.3345974 1.297296-3.326 2.192l-1.281-1.281c-.3923789-.3789722-1.0160848-.3735524-1.4018186.0121814s-.3911536 1.0094397-.0121814 1.4018186l1.3 1.3c-.8401522 1.0177142-1.5459405 2.1392454-2.1 3.337l-1.246-.313c-.5357162-.1347575-1.0792425.1902838-1.214.726s.1902838 1.0792425.726 1.214l1 .25c-.3014539.9049467-.5216582 1.8349588-.658 2.779h-1.1c-.5522847 0-1 .4477153-1 1s.4477153 1 1 1h1.125c.1406735.6028944.4239336 1.1632418.826 1.634.536983.6172911 1.2533192 1.0514977 2.049 1.242v1.124c0 .5522847.4477153 1 1 1s1-.4477153 1-1v-1.156c1.3801735-.369821 2.451742-1.4582284 2.8-2.844h1.2c.5522847 0 1-.4477153 1-1s-.4477153-1-1-1h-.867c.2095067-.8548956.5657934-1.6669452 1.053-2.4l1.107 1.107c.3923789.3789722 1.0160848.3735524 1.4018186-.0121814s.3911536-1.0094397.0121814-1.4018186l-1.147-1.147c1.0079673-.731948 2.1982703-1.1717372 3.44-1.271v1.125c0 .5522847.4477153 1 1 1s1-.4477153 1-1v-1.31c1.3511405-.3335541 2.4252082-1.3566568 2.824-2.69h1.176c.5522847 0 1-.4477153 1-1s-.4477153-1-1-1h-1.119c-.351734-1.4182816-1.461504-2.5241995-2.881-2.871zm-.957 5.689h-.04-.003c-2.4127187-.0949204-4.757293.8120729-6.478 2.506-.0397963.0225296-.0778972.0479302-.114.076-.0460041.0548425-.0859055.114527-.119.178-1.378213 1.5773399-2.211395 3.5568483-2.376 5.645-.0862678 1.0122498-.9381295 1.786947-1.954 1.777h-.144c-.522348-.0335564-1.0093951-.2752787-1.352-.671-.3299908-.3761017-.4950192-.8690251-.458-1.368.3-4.141 3.412-11.961 13.038-11.961 1.0671562-.0122292 1.9427301.8418692 1.957 1.909 0 .03-.008.058-.009.087-.0591873 1.0298076-.9165386 1.8317039-1.948 1.822z"/><path id="Shape" d="m40.5 38c-1.9329966 0-3.5 1.5670034-3.5 3.5s1.5670034 3.5 3.5 3.5 3.5-1.5670034 3.5-3.5-1.5670034-3.5-3.5-3.5zm0 5c-.8284271 0-1.5-.6715729-1.5-1.5s.6715729-1.5 1.5-1.5 1.5.6715729 1.5 1.5-.6715729 1.5-1.5 1.5z"/><path id="Shape" d="m43.068 26.813c-.2220134 1.2497928-1.2988015 2.1668238-2.568 2.187-1.9329966 0-3.5 1.5670034-3.5 3.5s1.5670034 3.5 3.5 3.5c6.224 0 8.891-5.11 9.433-7.815.3788673-1.8957174-.8507826-3.7396327-2.7465-4.1185s-3.7396327.8507826-4.1185 2.7465zm4.9.981c-.6913352 3.5845944-3.817424 6.1824127-7.468 6.206-.8284271 0-1.5-.6715729-1.5-1.5s.6715729-1.5 1.5-1.5c2.2293293.0001653 4.1378981-1.5982452 4.529-3.793.1397477-.7016506.7555679-1.2069497 1.471-1.207.0986973.0003325.1971398.0100428.294.029.8104572.1652836 1.3359326.9532734 1.177 1.765z"/><path id="Shape" d="m36 44h-1.142c-.0928199-.3580374-.2359091-.7011148-.425-1.019l.81-.81c.3789722-.3923789.3735524-1.0160848-.0121814-1.4018186s-1.0094397-.3911536-1.4018186-.0121814l-.81.81c-.3178852-.1890909-.6609626-.3321801-1.019-.425v-1.142c0-.5522847-.4477153-1-1-1s-1 .4477153-1 1v1.142c-.3580374.0928199-.7011148.2359091-1.019.425l-.81-.81c-.2510745-.2599566-.6228779-.3642126-.9725073-.2726972-.3496295.0915155-.6226744.3645604-.7141899.7141899-.0915154.3496294.0127406.7214328.2726972.9725073l.81.81c-.1890909.3178852-.3321801.6609626-.425 1.019h-1.142c-.5522847 0-1 .4477153-1 1s.4477153 1 1 1h1.142c.0928199.3580374.2359091.7011148.425 1.019l-.81.81c-.2599566.2510745-.3642126.6228779-.2726972.9725073.0915155.3496295.3645604.6226744.7141899.7141899.3496294.0915154.7214328-.0127406.9725073-.2726972l.81-.81c.3178852.1890909.6609626.3321801 1.019.425v1.142c0 .5522847.4477153.9999999 1 .9999999s1-.4477152 1-.9999999v-1.142c.3580374-.0928199.7011148-.2359091 1.019-.425l.81.81c.3923789.3789722 1.0160848.3735524 1.4018186-.0121814s.3911536-1.0094397.0121814-1.4018186l-.81-.81c.1890909-.3178852.3321801-.6609626.425-1.019h1.142c.5522847 0 1-.4477153 1-1s-.4477153-1-1-1zm-5 3c-1.1045695 0-2-.8954305-2-2s.8954305-2 2-2 2 .8954305 2 2-.8954305 2-2 2z"/></g></g></svg>