<svg id="Layer_5" enable-background="new 0 0 64 64" height="512" viewBox="0 0 64 64" width="512" xmlns="http://www.w3.org/2000/svg"><path d="m9 57h2v2h-2z"/><path d="m5 57h2v2h-2z"/><path d="m13 57h2v2h-2z"/><path d="m9 41h2v2h-2z"/><path d="m9 45h2v2h-2z"/><path d="m9 49h2v2h-2z"/><path d="m33 41h-18v8h18zm-16 2h6v4h-6zm14 4h-6v-4h6z"/><path d="m59 37h.81c1.759 0 3.19-1.431 3.19-3.189 0-.761-.272-1.498-.768-2.076l-5.772-6.735h-13.46v-3c1.321 0 2.555-.652 3.301-1.742.603-.882.827-1.945.63-2.996s-.792-1.961-1.673-2.562l-19-13c-1.333-.913-3.181-.914-4.517 0l-18.997 12.997c-.883.604-1.478 1.514-1.675 2.565-.196 1.05.027 2.113.63 2.995.746 1.091 1.98 1.742 3.301 1.743v31h-4v10h62v-10h-4zm-2 16h-14v-1-1-14h14zm-16 8h-4v-8h4zm-33.742-39.699.44-.301h32.604l.437.299c.084.057.174.101.261.152v9.549h-12v-8h-10v8h-12v-9.549c.086-.05.176-.093.258-.15zm3.363-2.301 13.379-9.153 13.379 9.153zm10.379 12v-6h6v6zm-14 2h4v4h-4zm6 0h4v4h-4zm6 0h4v4h-4zm6 0h4v4h-4zm6 0h4v4h-4zm6 0h4v4h-4zm18.54-6 5.173 6.035c.185.216.287.491.287.776 0 .656-.534 1.189-1.19 1.189h-16.81v-8zm-52.191-7.871c-.301-.441-.413-.974-.315-1.498.099-.525.396-.98.838-1.282l18.999-12.999c.667-.457 1.591-.457 2.258 0l19.001 13.001c.44.301.737.755.836 1.279.098.525-.014 1.058-.315 1.499-.603.879-1.9 1.125-2.782.521l-17.869-12.227-17.873 12.228c-.872.601-2.176.357-2.778-.522zm3.651 19.871h34v12h-6v10h-10v-10h-8v2h-10zm16 22h-4v-8h4zm-20-6h14v6h-14zm58 6h-18v-6h18z"/><path d="m55 49v-8h-10v8zm-8-6h6v4h-6z"/><path d="m53 57h2v2h-2z"/><path d="m57 57h2v2h-2z"/><path d="m45 57h2v2h-2z"/><path d="m49 57h2v2h-2z"/></svg>